<?xml version="1.0" encoding="utf-8"?>
<!-- Generator: Adobe Illustrator 27.5.0, SVG Export Plug-In . SVG Version: 6.00 Build 0)  -->
<svg version="1.1" id="Calque_1" xmlns="http://www.w3.org/2000/svg" xmlns:xlink="http://www.w3.org/1999/xlink" x="0px" y="0px"
	 viewBox="0 0 50 32.5" style="enable-background:new 0 0 50 32.5;" xml:space="preserve">
<g>
	<path d="M49.56,14.74c0,0-10.4-14.57-24.56-14.57c-14.16,0-24.56,14.57-24.56,14.57c-0.59,0.83-0.59,2.19,0,3.02
		c0,0,10.4,14.57,24.56,14.57s24.55-14.57,24.55-14.57C50.15,16.93,50.15,15.57,49.56,14.74z M25,28.63
		c-5.78,0-10.47-5.54-10.47-12.38S19.22,3.87,25,3.87s10.47,5.54,10.47,12.38S30.78,28.63,25,28.63z"/>
	<path d="M31.86,13.21c-1.71,0-3.09-1.38-3.09-3.09c0-0.45,0.1-0.87,0.27-1.25c-1.2-0.65-2.57-1.03-4.03-1.03
		c-4.65,0-8.42,3.77-8.42,8.42s3.77,8.42,8.42,8.42s8.42-3.77,8.42-8.42c0-1.13-0.22-2.2-0.63-3.19
		C32.5,13.16,32.18,13.21,31.86,13.21z"/>
</g>
</svg>
