<?xml version="1.0" encoding="utf-8"?>
<!-- Generator: Adobe Illustrator 27.5.0, SVG Export Plug-In . SVG Version: 6.00 Build 0)  -->
<svg version="1.1" id="Calque_1" xmlns="http://www.w3.org/2000/svg" xmlns:xlink="http://www.w3.org/1999/xlink" x="0px" y="0px"
	 viewBox="0 0 50 32.5" style="enable-background:new 0 0 50 32.5;" xml:space="preserve">
<g>
	<path d="M25,32.33c-13.62,0-24.4-14.98-24.85-15.62c-0.2-0.28-0.2-0.65,0-0.92C0.6,15.15,11.38,0.17,25,0.17
		s24.4,14.98,24.85,15.62c0.2,0.28,0.2,0.65,0,0.92C49.4,17.35,38.62,32.33,25,32.33z M1.8,16.25C3.73,18.77,13.5,30.73,25,30.73
		c11.51,0,21.27-11.96,23.2-14.49C46.27,13.73,36.5,1.76,25,1.76C13.49,1.76,3.73,13.73,1.8,16.25z"/>
	<path d="M25,24.66c-4.64,0-8.41-3.77-8.41-8.41S20.36,7.83,25,7.83c4.64,0,8.42,3.77,8.42,8.41C33.41,20.89,29.64,24.66,25,24.66z
		 M25,9.18c-3.9,0-7.07,3.17-7.07,7.07s3.17,7.07,7.07,7.07c3.9,0,7.07-3.17,7.07-7.07C32.07,12.35,28.9,9.18,25,9.18z"/>
</g>
</svg>
